<?xml version="1.0" encoding="UTF-8"?>
<svg id="Layer_1" data-name="Layer 1" xmlns="http://www.w3.org/2000/svg" width="700.683" height="671.394" viewBox="0 0 700.683 671.394">
  <path d="M577.1651,440.1111c9.2983-10.903,23.4484-21.8799,38.2008-14.5734-.0879,4.2868-11.9008,13.434-15.3373,18.3472-2.9265,4.1841-22.8635,44.1374-22.8635,46.7491v32.5592l9.0791-17.8879c20.3019,3.7663,2.1655,7.5299-.2514,10.4311-7.1615,8.5964-9.4395,24.6411-8.8191,35.5728.1435,2.5293-1.4897,6.1553,2.2083,5.5486,8.56-15.6328,26.5224-33.8745,44.9322-35.8989l-13.9316,16.3598c-8.6425,19.4974-12.272,39.6565-32.8612,50.2245l1.8894,27.714h-312.1632V163.9189l-78.6023,77.4685v245.8784l9.015-17.9584,4.1046,2.9665-8.6059,19.482c5.4598-.1613,5.3787-12.631,11.2382-7.8274,1.5673,10.2795-15.7519,13.4319-15.7519,14.5647v114.5187l-6.7277.0121c-.5072-22.1974-2.3828-44.0755-2.3624-66.3604.0094-10.2394,2.8538-19.9139,2.4374-31.4323-.6148-17.0043-15.7366-89.8572-33.119-95.0044-19.0231,2.2593-45.3959,6.0363-56.7848-12.6415,1.6253-7.4105,39.4182-1.6201,47.1491-1.1791-11.2371-13.0039-36.6038-32.7879-54.554-28.6865-7.5013,1.714-17.7638,14.6129-24.7519,12.7468-4.2728-1.141-4.6155-6.5973-6.6743-8.0724-6.0876-4.3614-15.4183,1.3933-15.2241-13.0955.1015-7.5714,4.8604-8.82,11.3721-10.0994-8.79-17.5904,7.7269-16.2426,10.7404-20.6382,1.5553-2.2686-.3262-7.5066,3.7169-11.0329,1.2934-1.1281,17.8671-2.1224,19.8438-1.5896,15.5665,4.1954,7.3648,35.0515,16.3282,46.7107,2.5857,3.3634,10.8485,5.5592,14.4784,9.078l-2.2126-13.4599c12.1838-1.7021,11.1149,13.9986,15.6363,21.393l24.7534,25.7389c-10.368-30.0707-13.6401-64.0127-31.2785-90.8775-15.6825,1.1777-31.3209-1.9142-41.5317-14.8028-1.5709-1.9829-16.4438-25.068-6.9398-22.2639,8.2159,2.424,28.1775,14.7874,36.0012,20.1527,1.6827,1.154,3.6463,4.7035,5.5817,1.1549-4.6577-4.7183-7.5809-10.8838-10.0117-16.9351-2.3565-5.8665-7.5796-27.3845-8.4461-28.5979-2.6873-3.7632-22.1023-5.1853-17.4517-20.7081l15.6861,6.7248c.6634-17.4192-39.9717-37.0154-35.6095-52.297,3.4471-12.0757,14.408-4.3024,16.5445-4.4382,2.2399-.1423,7.0492-8.2387,13.6803-8.4476,5.0975-.1606,7.8925,4.6376,10.6244,4.2304,4.7946-.7147,8.615-10.8822,19.3854-2.939,5.9922,4.4193,3.3922,10.3841,6.8193,13.3823,2.4474,2.1411,10.076,2.2466,10.9715,3.6352.6452,1.0004,2.3253,18.8844,4.9424,23.0487l-42.4702,17.4488c-3.012,4.8198,2.1181,27.9083,4.0603,34.5231.962,3.2767-1.2859,3.9431,4.5376,3.2802-1.3544-15.2913,6.6304-29.6042,16.855-40.3635,13.5513,16.2,9.3078,49.4205-14.5748,52.6991,14.5485,26.9015,29.9388,53.7692,35.9375,84.2125l8.8748-34.6794c-.2927-4.3198-3.4872-8.5691-6.5499-11.4432-12.625-11.8476-19.9371-4.6905-13.1748-30.9177l3.2392-3.3522,5.1562,1.6609c1.3817-5.245,2.1284-9.9683,8.1125-11.1439,7.564-1.4859,3.3837,9.4662,15.3483.2654l5.8937,5.4546c.982,7.1427-5.3564-.2406-8.9766,2.0233-6.4983,4.0637-4.125,21.2818-4.4652,28.2464l13.4409-11.2151-4.4488,13.4698,6.7056-1.1314c-24.1669,17.1082-23.266,48.9038-21.9091,75.8191l17.4285,44.3241v-48.2775c0-9.5902,11.0669-17.294,11.4118-20.1326l-.4272-137.094,85.5838-87.5291V62.873l45.7302,42.5014,63.1901-62.6699,200.9972,203.1739v194.2327ZM570.4278,487.2659v-236.8965L376.1679,53.9319l-56.2781,56.1146,1.1213,5.6632,150.135,150.8329c-2.953,50.7022-1.2811,101.5411-1.9082,152.3757-.0607,4.9232,5.1266,17.8649-6.6075,8.8428v-161.6735l-149.3443-149.2827-39.3011,39.2549v452.4612h22.4578v-140.3415l3.3687-3.3682h183.031v143.7097h84.2167c3.2203-1.9706,3.0765-4.4785,3.4741-7.7359,5.5518-45.4779-37.0064-34.5864-46.1942-61.8232-2.106-6.2432.1075-14.0257-5.5501-19.1506,9.9204.0154,20.5118,8.65,28.9867,13.6811l22.6481,23.3599c-1.2364-6.7509-.2332-13.1571-3.9729-19.6322-1.8403-3.1863-14.1988-9.8848-3.9102-11.7658l7.8968,7.8365c.3923-9.3548,1.157-18.231-6.7392-24.7051l4.3849-2.064c-5.5436-10.7048-5.776-33.3562-17.3083-38.901-17.821-8.5685-45.8763,6.069-59.9813-14.1284-2.5598-3.6655-9.252-18.7235-2.2838-20.128l56.1363,22.4322c3.0938.6903,4.2089-.1275,3.2897-3.2892-.9523-3.2753-13.0104-22.6195-15.7324-24.6997-7.6526-5.8483-20.3208-5.0046-29.1763-9.0007-16.018-7.2282-18.7997-24.5481-17.9478-40.4396.634-2.3749,5.4135,1.7379,6.508,2.4783,14.8258,10.0285,28.255,23.0538,39.5507,36.7998,2.5115-6.9766-9.9027-16.92,3.3457-17.9412-3.2351,19.8658,6.0072,34.0181,16.8659,49.3781,5.9205-10.1224-8.8664-48.4114,10.1125-34.736-9.7971,21.4753-4.8223,46.838,3.9133,67.9727,1.3849,3.3506-1.3821,6.0812,5.0526,4.9471ZM273.985,141.4643c12.3434-5.2539,21.403-19.2402,31.2785-28.3765.6477-3.6559-26.3158-28.2365-31.2785-32.251v60.6275ZM118.4617,189.1853c-1.9691-1.9874-6.2491-2.875-9.1007-2.5068-9.0716,2.2248-8.8801,23.5589-8.2781,31.1203l7.8485-15.6957-.0222,13.4504c6.5595-5.8015,17.6523-18.1931,9.5525-26.3682ZM94.1263,188.8241c-3.3911-2.2875-11.9596,1.3185-12.9649,5.9014l6.4466,25.3339c9.7285,2.6381-2.0499-14.0992,3.3689-15.7338l5.5688,15.7186c-.2698-5.5907,1.2684-28.7326-2.4194-31.2201ZM83.072,215.5637c-2.8777-9.5754-7.7502-25.6819-20.126-20.1412-2.6662,9.7327,7.4008,11.812,8.962,20.1251l4.4164-1.07,1.1304-5.664,5.6172,6.7501ZM119.0271,222.2789c30.0331-10.5442,8.0103-32.2985-4.4916-4.491l9.0042-3.3241-4.5126,7.815ZM102.6843,227.4211c-2.7284-1.8125-17.5347-3.3395-15.0617,2.6863,3.2972,8.0339,12.9852,9.2568,20.1699,5.6391.2921-.3914-4.531-7.9419-5.1083-8.3254ZM114.5356,287.3973c15.9603-4.6272,14.6553-27.3389,11.2039-40.3939-8.2645,5.103-13.189,19.4228-15.1774,28.6012-.4903,2.263-2.2769,7.877,1.6987,7.3073l8.9882-22.427-6.7134,26.9124ZM154.9469,291.9217c-15.7964,4.1677-5.1944,17.0496-2.2058,26.9177,3.904.5358,2.1171-5.1097,2.2173-7.8184.235-6.35-.1515-12.767-.0115-19.0993ZM112.288,316.5886c-1.3625-6.0815-32.0848-21.7536-33.6743-20.1758-.842,5.9466,13.2728,23.9431,17.9526,20.1771l-1.1348-6.7014,16.8565,6.7001ZM85.3176,357.028c1.873-2.2136-16.0549-31.7754-20.1778-26.9338-3.1517,14.4424,11.9319,18.8265,20.1778,26.9338ZM92.0542,354.7831c-1.1168-10.6582-1.4347-27.4184-15.6975-24.6772l15.6975,24.6772ZM80.8257,368.2555c5.2882-7.2944-19.0016-30.8273-29.0283-22.2844-3.0534,18.7288,17.2169,15.4877,29.0283,22.2844ZM76.3399,370.5298c-7.2874-1.2285-32.5737-14.1696-33.8063-1.1366-1.1562,12.2252,18.6066,6.2183,27.1521,4.5199,2.4014-.4773,7.2527-.1498,6.6542-3.3833ZM175.1707,394.0791c-1.6539,14.3675,1.2117,31.3464,0,46.032,3.3778.5419,2.7963-4.1891,3.3751-6.7057,3.5597-15.4772,5.0747-31.5823,1.0912-47.1717-2.3805-.8446-4.3624,6.9428-4.4663,7.8454ZM523.2649,419.8805c-6.5005-15.1219-19.4102-25.9146-33.6624-33.6602-2.4749,22.6676,13.3917,31.7407,33.6624,33.6602ZM143.7246,413.1926c-14.7981-5.2386-29.3696-4.9465-44.8991-4.4951l16.9667,8.8262c8.3469-1.0387,22.8113,4.0385,27.9324-4.331ZM608.5943,426.65c-23.9106,2.3525-33.6861,22.6793-31.4174,44.886,7.8297,1.1028,5.404-12.2067,7.4762-17.308.2517-.6197,8.3195-6.7732,10.0267-8.8562l13.9145-18.7218ZM545.7239,462.5433l-8.952-7.8674-47.1812-14.5527c4.6308,22.1218,28.568,22.4697,47.1392,22.4198l-20.1704-5.6576-3.3658-3.3379,32.5302,8.9959ZM388.5197,473.7931h-83.0938c1.1636,8.663-3.2166,20.4265,3.3687,26.9456h79.7251v-26.9456ZM473.8593,473.7931h-80.848v26.9456h80.848v-26.9456ZM388.5197,507.475h-83.0938v24.7001h83.0938v-24.7001ZM473.8593,507.475h-80.848v24.7001h80.848v-24.7001ZM565.9142,563.6108c3.625-4.1529-31.239-39.8625-40.3897-38.1613-1.3806,19.9171,16.5489,26.7394,30.3416,35.933l2.1987-4.4999,7.8494,6.7282ZM579.4117,579.3078c7.2236,7.3186,26.8019-39.9978,26.9265-44.8863-14.2412,9.1646-28.0218,22.2487-29.1505,40.4172l6.7366-3.3458-4.5127,7.815ZM388.5197,538.9115h-83.0938v29.191h83.0938v-29.191ZM473.8593,538.9115h-80.848v29.191h80.848v-29.191ZM388.5197,574.839h-83.0938l-.0791,27.6493c.4522,1.4835,5.0725,3.7872,5.6935,3.7872h77.4794v-31.4365ZM473.8593,574.839h-80.848v31.4365h80.848v-31.4365Z"/>
</svg>