<?xml version="1.0" encoding="UTF-8"?>
<svg id="Layer_1" data-name="Layer 1" xmlns="http://www.w3.org/2000/svg" width="667.3126" height="731.5396" viewBox="0 0 667.3126 731.5396">
  <defs>
    <style>
      .cls-1 {
        fill: #e8c679;
      }
    </style>
  </defs>
  <path class="cls-1" d="M650.3904,182.893h-.0324c-11.0334-19.0902-27.1144-35.1712-47.4665-46.9326L398.0935,17.7312h-.0648C377.5636,5.905,355.6099,0,333.6563,0s-43.9073,5.905-64.3725,17.7312l-204.7981,118.2293h-.0647c-20.352,11.7614-36.433,27.8424-47.4665,46.9326h-.0324C5.8888,202.0155,0,223.9852,0,247.5243v236.4748c0,23.5553,5.8888,45.525,16.9222,64.6475h.0324c11.0334,19.0902,27.1144,35.1712,47.4665,46.9164h.0647l204.7981,118.2455c20.4652,11.8262,42.4188,17.7312,64.3725,17.7312s43.9073-5.905,64.3725-17.7312h.0648l204.798-118.2455c20.352-11.7452,36.433-27.8262,47.4665-46.9164h.0324c11.0333-19.1225,16.9222-41.0922,16.9222-64.6475v-236.4748c0-23.5391-5.8888-45.5088-16.9222-64.6313ZM226.8835,257.9881c3.2091-8.4807,6.7852-16.7835,10.7099-24.8882,20.1578-41.6331,49.5466-78.0131,85.5185-106.493l9.4387-7.4732,9.4391,7.4732c35.9709,28.4794,65.3605,64.8594,85.5184,106.4926,4.081,8.4288,7.786,17.071,11.0929,25.9052,3.6274,9.6909,6.7766,19.6144,9.4171,29.7377-4.1025,2.4416-8.1381,5.0079-12.1014,7.698-5.0738,3.4436-10.0306,7.0894-14.8578,10.9341-23.1345,18.428-43.2704,41.4186-58.9515,68.5786v.0605c-4.4492,7.7052-8.4289,15.5554-11.9458,23.5142-7.6584,17.3283-13.129,35.1766-16.5051,53.2021-3.3761-18.0254-8.8466-35.8737-16.5051-53.2021-3.5173-7.9588-7.4966-15.809-11.9459-23.5142-16.1354-27.9479-36.9394-51.4622-60.8375-70.1232-4.2301-3.3028-8.5564-6.4542-12.9722-9.4501-4.5776-3.1075-9.253-6.0498-14.0154-8.8257,2.6726-10.0872,5.8501-19.9725,9.5029-29.6268ZM218.3413,563.6489c-33.0956-22.4618-61.7607-52.5559-83.1017-89.5054l-.0266.0156c-21.3543-36.9877-33.098-76.8827-36.0031-116.793-3.0102-41.3553,3.5091-82.7986,18.693-121.0868l4.4602-11.2491,11.9083,1.7518c23.9883,3.5284,47.4596,10.2389,69.7474,19.9523-3.6903,9.5406-6.9264,19.2315-9.7032,29.043-16.7662-7.5053-34.3398-13.0959-52.3542-16.6743-10.3934,30.6637-14.6689,63.3722-12.2846,96.1128,2.5796,35.4317,12.9969,70.8389,31.9413,103.6493v.0605c17.1215,29.6571,39.5549,54.3412,65.4028,73.5433,12.5081,21.3377,27.3782,41.203,44.2819,59.2127-18.516-7.3425-36.2928-16.7198-52.9616-28.0328ZM341.9897,604.9325l-9.4391,7.4733-9.4387-7.4733c-31.0848-24.6102-57.2532-55.1202-76.7974-89.8209-3.0735-5.4558-5.9824-11.0153-8.7211-16.6721-19.4457-40.162-30.3504-85.1767-30.3504-132.6699,0-17.6956,1.5138-35.0473,4.419-51.9321,1.8452,1.1717,3.6727,2.3718,5.4832,3.6009,7.8759,5.3444,15.351,11.1804,22.3968,17.4654-1.1314,10.1294-1.7119,20.4288-1.7119,30.8659,0,42.8476,9.7881,83.3558,27.2435,119.4079,2.68,5.5334,5.5388,10.9631,8.5692,16.2817,15.4861,27.1711,35.4618,51.4278,58.9082,71.7544,24.5951-21.3217,45.3698-46.9693,61.1508-75.7684,2.2081-4.0296,4.3171-8.1198,6.3257-12.2677,17.4559-36.0521,27.245-76.5598,27.245-119.4079,0-9.817-.5141-19.5111-1.5161-29.0571,7.6323-6.9757,15.7829-13.4179,24.4113-19.2741,1.1561-.7852,2.3201-1.5579,3.4904-2.3196,2.7624,16.4809,4.2005,33.4028,4.2005,50.6508,0,47.494-10.9042,92.5079-30.3504,132.6699-3.1619,6.5313-6.5509,12.9323-10.1574,19.1939-19.3828,33.6582-45.0326,63.2874-75.361,87.2991ZM568.1033,357.3661c-2.9056,39.9103-14.6487,79.8053-36.0034,116.7935l-.0267-.0156c-21.341,36.9486-50.006,67.0432-83.1016,89.5049-17.7145,12.0225-36.6805,21.8596-56.4557,29.3907,16.6803-17.5742,31.4134-36.9409,43.8871-57.7412,27.4869-19.5832,51.3168-45.2376,69.2916-76.3723v-.0601c18.9444-32.8112,29.3616-68.2185,31.9413-103.6502,2.3842-32.7406-1.8912-65.4483-12.2843-96.1128-18.7177,3.7187-36.9597,9.6094-54.3159,17.5626-2.7526-9.8299-5.9644-19.5392-9.6322-29.099,22.8497-10.1623,46.9716-17.1567,71.6382-20.7846l11.9078-1.7518,4.4611,11.2491c15.183,38.2882,21.7033,79.7325,18.6926,121.0868ZM331.6103,360.7203c.6925,1.1991,1.3744,2.4002,2.0463,3.604.6717-1.2038,1.3543-2.4049,2.0463-3.604l.0261.0155c19.9089-34.469,46.1906-62.9727,76.4989-84.8792-3.5045-10.1178-7.5846-19.962-12.2004-29.495-16.3674-33.8051-39.4418-63.7313-67.4764-88.0357-28.0359,24.3044-51.109,54.2307-67.4774,88.0361-4.4217,9.1351-8.3525,18.5551-11.756,28.2267,31.1001,22.1,58.0313,51.0366,78.2928,86.1317Z"/>
</svg>