<?xml version="1.0" encoding="UTF-8"?>
<svg id="Layer_1" data-name="Layer 1" xmlns="http://www.w3.org/2000/svg" width="614.6245" height="569.9405" viewBox="0 0 614.6245 569.9405">
  <defs>
    <style>
      .cls-1 {
        fill: #b8231a;
      }
    </style>
  </defs>
  <path class="cls-1" d="M614.6162,57.5087c-.0044,0-.0083-9.9-.0083-22v-13.5087c0-12.1-9.8999-22-22-22h-156.7778c-12.1001,0-26.7422,8.6904-32.5376,19.3121,0,0-43.0347,78.8674-99.4707,78.8674S204.3525,19.3121,204.3525,19.3121c-5.7954-10.6216-20.4375-19.3121-32.5376-19.3121H22C9.8999,0,0,9.9,0,22v525.7531c0,12.1,9.8999,22,22,22h78.1299c12.0996,0,19.0654-2.8353,15.479-6.3005l-3.1138-3.3146c-13.6094-14.4867-23.3213-30.2003-23.3213-30.2003-6.3613-10.2928-15.8589-18.7143-21.105-18.7143s-9.5391-9.9-9.5391-22V80.5297c0-12.1,9.8999-22,22-22h52.6924c12.0996,0,27.0947,8.4885,33.3213,18.8633,0,0,9.8276,16.3738,25.165,30.6439,30.5938,28.4658,70.4102,44.1426,112.1133,44.1426s81.5195-15.6768,112.1143-44.1426c15.3374-14.2701,25.1646-30.6439,25.1646-30.6439,6.2271-10.3748,21.2217-18.8633,33.3218-18.8633h59.6724c12.0996,0,22,9.9,22,22v408.6937c0,12.1-9.9004,22-22,22h-202.5425c-12.1001,0-26.0225.1373-30.939.305h-4.7754c-25.3838,0-45.9844-4.4336-61.8018-13.2988-15.8252-8.8662-28.1631-20.251-37.0283-34.1611-8.8662-13.9023-14.8643-29.1162-17.9932-45.6338-3.1299-16.5098-4.6943-32.417-4.6943-47.7207,0-16.3389,2.5186-32.5068,7.5625-48.5029,5.0361-15.9883,12.9492-30.249,23.7295-42.7656,10.7734-12.5166,24.4229-22.6865,40.9404-30.5098,16.5107-7.8232,36.0674-11.7344,58.6729-11.7344,22.9482,0,42.9375,2.6074,59.9766,7.8223,17.0312,5.2158,31.292,12.5176,42.7656,21.9053,21.9053,18.4326,32.8574,47.1172,32.8574,86.0527,0,17.7324-1.2227,32.5146-3.6514,44.3311l-2.4365,11.8242c-4.6836,6.9781-11.2144,14.059-14.5127,15.7354l-4.6943-1.2227-4.6934-1.2139c-2.1519-3.205-4.6963-8.4454-5.6553-11.6455l-.3428-3.3076-.3506-3.3008c-.0938-3.2044-.1709-15.7262-.1709-27.8262v-75.9531c0-12.1-.5098-25.0876-1.1328-28.8613l-2.2568-2.2656-2.2656-2.2578c-3.7739-.623-16.0142-1.1328-27.2012-1.1328s-23.2368.1178-26.7773.2617l-2.4287.5215c-2.4365.5215-3.6504,1.3037-3.6504,2.3467,0,1.3936-3.8301.8721-11.4746-1.5645-7.3008-2.4287-16.6885-3.6514-28.1621-3.6514-15.6465,0-29.8174,2.6973-42.5059,8.084-12.6953,5.3945-23.6475,12.957-32.8564,22.6865-9.2168,9.7383-16.3467,21.3828-21.3828,34.9434-5.0439,13.5596-7.5625,28.6846-7.5625,45.373,0,34.4219,9.209,61.6309,27.6416,81.6201,18.4248,19.998,43.8086,29.9883,76.1445,29.9883,11.123,0,21.3828-1.8252,30.7705-5.4756l9.3877-3.6514c8.605-5.5934,18.3042-11.3029,21.5537-12.6875l3.4795.1709c3.4717.1797,6.6006,1.4834,9.3877,3.9121,5.5576,4.873,12.166,8.6943,19.8184,11.4736,7.6436,2.7871,15.5566,4.5225,23.7295,5.2148,8.166.7012,16.249.0898,24.252-1.8252,7.9941-1.9072,15.4668-5.2969,22.4258-10.1699,28.5049-21.2031,42.7656-61.3613,42.7656-120.4746,0-58.0615-18.6035-102.7422-55.8037-134.0342-17.3906-14.9453-38.252-26.0771-62.585-33.3784-24.3408-7.3013-51.8105-10.9521-82.4023-10.9521-29.9062,0-57.1973,5.1338-81.8809,15.3853-24.6914,10.2598-46.0742,25.2944-64.1484,45.1123-16.3467,17.7324-28.8643,38.252-37.5508,61.542-8.6953,23.2979-13.0381,47.9805-13.0381,74.0576,0,31.292,4.2539,59.1943,12.7773,83.7061,8.5156,24.5127,20.8613,45.374,37.0293,62.584,16.167,17.2109,35.8066,30.3389,58.9336,39.376,23.1182,9.0371,49.2842,13.5605,78.4902,13.5605h4.7305c4.9409-.103,18.8838-.1874,30.9839-.1874h261.0723c12.0996,0,22-9.9,22-22V79.5087c0-12.1-.0039-22-.0083-22ZM337.3818,399.3985l-2.4287,5.2148c-2.4365,5.2158-5.4756,9.3877-9.127,12.5176-3.6504,3.1289-7.8223,5.3047-12.5166,6.5186-4.6934,1.2227-9.6484,1.8252-14.8633,1.8252-3.8301,0-7.8232-.7822-11.9961-2.3467-4.1719-1.5645-8.002-4.2539-11.4736-8.084-3.4795-3.8213-6.3477-8.9473-8.6055-15.3848-2.2646-6.4297-3.3896-14.6846-3.3896-24.7734,0-5.2148.5215-10.7725,1.5645-16.6885,1.043-5.9082,2.8691-11.4736,5.4766-16.6895s6.2578-9.5586,10.9521-13.0381c4.6934-3.4717,10.6914-5.2158,17.9932-5.2158,8.6865,0,15.6455,1.2227,20.8613,3.6514,5.2148,2.4365,9.208,5.5654,11.9951,9.3867,2.7783,3.8301,4.6045,7.9131,5.4756,12.2568l.8643,4.3516c.2422,4.6342.4404,13.7062.4404,20.1602s-.5503,18.306-1.2227,26.3379Z"/>
</svg>