<?xml version="1.0" encoding="UTF-8"?>
<svg id="Layer_1" data-name="Layer 1" xmlns="http://www.w3.org/2000/svg" width="642.0552" height="642.0468" viewBox="0 0 642.0552 642.0468">
  <path d="M602.233,0h-137.564c-22.008,0-39.8234,17.8066-39.8234,39.8172,0,59.6092-48.5261,108.0963-108.0963,108.0963s-108.0989-48.4872-108.0989-108.0963c0-22.0105-17.8041-39.8172-39.8146-39.8172H39.8174C17.8154,0,0,17.8066,0,39.8172v562.415c0,22.0077,17.8154,39.8146,39.8174,39.8146h230.6014c-20.4737-22.2417-35.4187-49.3891-42.9551-79.6292H79.6405V79.6318h53.6576c18.2749,84.4562,93.6306,147.9107,183.4512,147.9107s165.1828-63.4545,183.4515-147.9107h62.2173v482.7857h-157.4011c-24.3421,0-44.1699-19.7971-44.1699-44.1395v-36.1238h67.1872v-79.6295h-67.1872v-56.615h-79.638v172.3684c0,68.2422,55.5265,123.7687,123.8079,123.7687h197.216c22.0105,0,39.8222-17.8069,39.8222-39.8146V39.8172c0-22.0105-17.8117-39.8172-39.8222-39.8172"/>
</svg>