<?xml version="1.0" encoding="UTF-8"?>
<svg id="Layer_1" data-name="Layer 1" xmlns="http://www.w3.org/2000/svg" width="759.5671" height="548.5173" xmlns:xlink="http://www.w3.org/1999/xlink" viewBox="0 0 759.5671 548.5173">
  <defs>
    <style>
      .cls-1 {
        fill: url(#_횁책챌청챙첼챠챠청챕_찾챨횪채챔책챠챵_21);
      }
    </style>
    <linearGradient id="_횁책챌청챙첼챠챠청챕_찾챨횪채챔책챠챵_21" data-name="횁책챌청챙첼챠챠청챕 찾챨횪채챔책챠챵 21" x1="-4775.6276" y1="-2444.8715" x2="1801.792" y2="1024.1529" gradientUnits="userSpaceOnUse">
      <stop offset="0" stop-color="#ededee"/>
      <stop offset=".8172" stop-color="#e3e5e7"/>
      <stop offset="1" stop-color="#e0e3e6"/>
    </linearGradient>
  </defs>
  <path class="cls-1" d="M743.0271,54.1545c0,9.2289,7.3111,16.5436,16.5401,16.7183v15.4956c-9.2289.1747-16.5401,7.4894-16.5401,16.7183s7.3111,16.5436,16.5401,16.7183v15.4956c-9.2289.1747-16.5401,7.4894-16.5401,16.7183s7.3111,16.3654,16.5401,16.5401v15.6739c-8.0096,0-14.6258,5.7462-16.1943,13.4067-35.3473,7.4894-61.9896,39.0046-61.9896,76.619s26.6423,69.2188,61.9896,76.7046c1.5685,7.6605,8.1847,13.3212,16.1943,13.3212v15.4992c-9.2289.1747-16.5401,7.4858-16.5401,16.7183,0,9.2254,7.3111,16.5401,16.5401,16.7147v15.4992c-9.2289.1747-16.5401,7.4858-16.5401,16.7147s7.3111,16.369,16.5401,16.5436v15.6703c-9.2289.1747-16.5401,7.4894-16.5401,16.7183,0,9.0543,7.3111,16.369,16.5401,16.5436v15.6703c-9.2289.1747-16.5401,7.3147-16.5401,16.5436,0,1.9142.3458,3.6574,1.0447,5.3969H15.8485c.5204-1.7396.8698-3.4827.8698-5.3969,0-9.2289-7.4003-16.5436-16.6289-16.5436l-.0894-15.6703c9.4036,0,16.7183-7.4894,16.7183-16.5436,0-9.2289-7.4003-16.7183-16.6289-16.7183l-.0894-15.6703c9.4036,0,16.7183-7.3147,16.7183-16.5436s-7.4003-16.7147-16.6289-16.7147l-.0894-15.4992c9.4036,0,16.7183-7.4894,16.7183-16.7147,0-9.2325-7.4003-16.7183-16.6289-16.7183l-.0894-15.4992c8.1845,0,14.8041-5.7462,16.369-13.4067,35.6966-7.4894,61.9932-39.0082,61.9932-76.619s-26.4677-69.1297-61.9932-76.619c-1.5649-7.6605-8.27-13.4067-16.2796-13.4067l-.0894-15.6739c9.4036,0,16.7183-7.3111,16.7183-16.5401S9.318,135.3006.0894,135.3006l-.0894-15.4956c9.4036,0,16.7183-7.4894,16.7183-16.7183S9.318,86.3684.0894,86.3684l-.0894-15.4956c9.4036,0,16.7183-7.4894,16.7183-16.7183S9.318,37.4397.0894,37.4397l-.0894-15.4992c9.4036,0,16.7183-7.4858,16.7183-16.7183,0-1.9142-.3493-3.6574-.8698-5.2222h728.2233c-.6989,1.5649-1.0447,3.308-1.0447,5.2222,0,9.2325,7.3111,16.5436,16.5401,16.7183v15.4992c-9.2289.1711-16.5401,7.4858-16.5401,16.7147Z"/>
</svg>