<?xml version="1.0" encoding="UTF-8"?>
<svg id="Layer_1" data-name="Layer 1" xmlns="http://www.w3.org/2000/svg" width="319.4773" height="560.5374" viewBox="0 0 319.4773 560.5374">
  <defs>
    <style>
      .cls-1 {
        fill: #f1f0f0;
      }

      .cls-2 {
        fill: none;
      }
    </style>
  </defs>
  <path class="cls-2" d="M140.6012,445.9294h.0001c-.2689-.0399-.5375-.0824-.8177-.0824-.7676,0-1.4991.1556-2.1642.437-.6652.2814-1.2642.6884-1.7673,1.1915-.7546.7545-1.2933,1.725-1.5155,2.8109-.0741.3619-.113.7367-.113,1.1205,0,2.3032,1.4001,4.279,3.3957,5.1231.6651.2813,1.3966.437,2.1642.437.2801,0,.5487-.0424.8177-.0824h-.0001c2.6797-.3982,4.7425-2.6869,4.7425-5.4777s-2.0628-5.0792-4.7425-5.4774Z"/>
  <path class="cls-2" d="M119.3893,445.9294c-.2689-.0399-.5374-.0824-.8175-.0824-.3838,0-.7587.0389-1.1206.113-.724.1481-1.3966.437-1.9881.8366-.2957.1997-.5714.4273-.8229.6789-.7546.7545-1.2933,1.725-1.5155,2.8109-.0741.3619-.113.7367-.113,1.1205,0,2.1681,1.2533,4.0258,3.0635,4.9427.4333.2195.8865.4043,1.3759.5044.3619.0741.7368.113,1.1206.113.2801,0,.5486-.0424.8175-.0824,2.6797-.3982,4.7424-2.6867,4.7424-5.4777s-2.0627-5.0792-4.7424-5.4774Z"/>
  <path class="cls-2" d="M161.8133,445.9294h.0001c-.2689-.0399-.5375-.0824-.8177-.0824-.7676,0-1.4991.1556-2.1642.437-.6652.2814-1.2642.6884-1.7673,1.1915-.7546.7545-1.2933,1.725-1.5155,2.8109-.0741.3619-.113.7367-.113,1.1205,0,2.3032,1.4001,4.279,3.3957,5.1231.6651.2813,1.3966.437,2.1642.437.2801,0,.5487-.0424.8177-.0824h-.0001c2.6797-.3982,4.7425-2.6869,4.7425-5.4777s-2.0628-5.0792-4.7425-5.4774Z"/>
  <path class="cls-2" d="M55.753,445.9294h.0001c-.2691-.0399-.5375-.0824-.8177-.0824-2.0948,0-3.8969,1.1721-4.8449,2.883-.268.4837-.488.9979-.6022,1.5563-.0741.3619-.113.7367-.113,1.1205,0,.976.2735,1.8795.7152,2.6769.2531.4569.5468.8881.9134,1.2546s.7977.6602,1.2546.9134c.7973.4417,1.7008.7152,2.6769.7152.2801,0,.5486-.0424.8177-.0824h-.0001c2.6797-.3982,4.7424-2.6869,4.7424-5.4777s-2.0627-5.0792-4.7424-5.4774Z"/>
  <path class="cls-2" d="M34.5409,445.9294h.0001c-.2691-.0399-.5375-.0824-.8177-.0824-2.0948,0-3.8969,1.1721-4.8449,2.883-.268.4837-.488.9979-.6022,1.5563-.0741.3619-.113.7367-.113,1.1205,0,.976.2735,1.8795.7152,2.6769.2531.4569.5468.8881.9134,1.2546s.7977.6602,1.2546.9134c.7973.4417,1.7008.7152,2.6769.7152.2801,0,.5486-.0424.8177-.0824h-.0001c2.6797-.3982,4.7424-2.6869,4.7424-5.4777s-2.0627-5.0792-4.7424-5.4774Z"/>
  <path class="cls-2" d="M76.9651,445.9294c-.2689-.0399-.5374-.0824-.8175-.0824-2.0948,0-3.8969,1.1721-4.8449,2.883-.268.4837-.488.9979-.6022,1.5563-.0741.3619-.113.7367-.113,1.1205,0,.976.2735,1.8795.7152,2.6769.2531.4569.5468.8881.9134,1.2546s.7977.6602,1.2546.9134c.7973.4417,1.7008.7152,2.6769.7152.2801,0,.5486-.0424.8175-.0824,2.6797-.3982,4.7424-2.6867,4.7424-5.4777s-2.0627-5.0792-4.7424-5.4774Z"/>
  <path class="cls-2" d="M98.1772,445.9294c-.2689-.0399-.5374-.0824-.8175-.0824-2.0948,0-3.8969,1.1721-4.8449,2.883-.268.4837-.488.9979-.6022,1.5563-.0741.3619-.113.7367-.113,1.1205,0,.976.2735,1.8795.7152,2.6769.2531.4569.5468.8881.9134,1.2546s.7977.6602,1.2546.9134c.7973.4417,1.7008.7152,2.6769.7152.2801,0,.5486-.0424.8175-.0824,2.6797-.3982,4.7424-2.6867,4.7424-5.4777s-2.0627-5.0792-4.7424-5.4774Z"/>
  <path class="cls-2" d="M183.0254,445.9294h.0001c-.2689-.0399-.5375-.0824-.8177-.0824-.7676,0-1.4991.1556-2.1642.437-.6652.2814-1.2642.6884-1.7673,1.1915-.7546.7545-1.2933,1.725-1.5155,2.8109-.0741.3619-.113.7367-.113,1.1205,0,2.3032,1.4001,4.279,3.3957,5.1231.6651.2813,1.3966.437,2.1642.437.2801,0,.5487-.0424.8177-.0824h-.0001c2.6797-.3982,4.7425-2.6869,4.7425-5.4777s-2.0628-5.0792-4.7425-5.4774Z"/>
  <path class="cls-2" d="M289.0858,445.9294h.0001c-.2689-.0399-.5377-.0824-.8178-.0824-1.5353,0-2.9253.6223-3.9314,1.6284-.7545.7545-1.2933,1.725-1.5155,2.8109-.0741.3619-.113.7367-.113,1.1205,0,2.3032,1.4,4.279,3.3956,5.1231.6651.2813,1.3966.437,2.1642.437.2801,0,.5488-.0424.8178-.0824h-.0001c2.6799-.3983,4.7424-2.6869,4.7424-5.4777s-2.0625-5.0791-4.7424-5.4774Z"/>
  <path class="cls-2" d="M267.8737,445.9294h.0001c-.2689-.0399-.5377-.0824-.8178-.0824-1.5353,0-2.9253.6223-3.9314,1.6284-.7545.7545-1.2933,1.725-1.5155,2.8109-.0741.3619-.113.7367-.113,1.1205,0,2.3032,1.4,4.279,3.3956,5.1231.6651.2813,1.3966.437,2.1642.437.2801,0,.5488-.0424.8178-.0824h-.0001c2.6799-.3983,4.7424-2.6869,4.7424-5.4777s-2.0625-5.0791-4.7424-5.4774Z"/>
  <path class="cls-2" d="M225.4495,445.9294h.0001c-.2689-.0399-.5375-.0824-.8177-.0824-.7676,0-1.4991.1556-2.1642.437-.6652.2814-1.2642.6884-1.7673,1.1915-.7546.7545-1.2933,1.725-1.5155,2.8109-.0741.3619-.113.7367-.113,1.1205,0,2.3032,1.4001,4.279,3.3957,5.1231.6651.2813,1.3966.437,2.1642.437.2801,0,.5487-.0424.8177-.0824h-.0001c2.6797-.3982,4.7424-2.6869,4.7424-5.4777s-2.0627-5.0792-4.7424-5.4774Z"/>
  <path class="cls-2" d="M204.2374,445.9294h.0001c-.2689-.0399-.5375-.0824-.8177-.0824-.7676,0-1.4991.1556-2.1642.437-.6652.2814-1.2642.6884-1.7673,1.1915-.7546.7545-1.2933,1.725-1.5155,2.8109-.0741.3619-.113.7367-.113,1.1205,0,2.3032,1.4001,4.279,3.3957,5.1231.6651.2813,1.3966.437,2.1642.437.2801,0,.5487-.0424.8177-.0824h-.0001c2.6797-.3982,4.7424-2.6869,4.7424-5.4777s-2.0627-5.0792-4.7424-5.4774Z"/>
  <path class="cls-2" d="M246.6616,445.9294h.0001c-.2689-.0399-.5375-.0824-.8178-.0824-1.5353,0-2.9253.6223-3.9314,1.6284-.7545.7545-1.2933,1.725-1.5155,2.8109-.0741.3619-.113.7367-.113,1.1205,0,2.3032,1.4,4.279,3.3956,5.1231.6651.2813,1.3966.437,2.1642.437.2802,0,.5488-.0424.8178-.0824h-.0001c2.6799-.3982,4.7424-2.6869,4.7424-5.4777s-2.0625-5.0792-4.7424-5.4774Z"/>
  <path class="cls-1" d="M307.7891,445.6035c6.4285,0,11.6882-5.2597,11.6882-11.6882V11.6882c0-6.4286-5.2597-11.6882-11.6882-11.6882H11.6882C5.2597,0,0,5.2596,0,11.6882v422.2272c0,6.4285,5.2597,11.6882,11.6882,11.6882h.4015c3.0059,0,5.4426,2.4366,5.4426,5.4426s-2.4367,5.4426-5.4426,5.4426h-.4015c-6.4285,0-11.6882,5.2597-11.6882,11.6882v80.6724c0,6.4285,5.2597,11.6882,11.6882,11.6882h296.1009c6.4285,0,11.6882-5.2597,11.6882-11.6882v-80.6724c0-6.4285-5.2597-11.6882-11.6882-11.6882-2.869,0-5.1948-2.3258-5.1948-5.1946v-.496c0-2.869,2.3258-5.1946,5.1948-5.1946ZM34.5409,456.8845h.0001c-.2691.0399-.5375.0824-.8177.0824-.976,0-1.8795-.2735-2.6769-.7152-.4569-.2531-.8881-.5468-1.2546-.9134s-.6602-.7977-.9134-1.2546c-.4417-.7973-.7152-1.7008-.7152-2.6769,0-.3838.0389-.7586.113-1.1205.1143-.5583.3342-1.0726.6022-1.5563.948-1.7109,2.7501-2.883,4.8449-2.883.2801,0,.5486.0424.8177.0824h-.0001c2.6797.3982,4.7424,2.6869,4.7424,5.4774s-2.0627,5.0795-4.7424,5.4777ZM55.753,456.8845h.0001c-.2691.0399-.5375.0824-.8177.0824-.976,0-1.8795-.2735-2.6769-.7152-.4569-.2531-.8881-.5468-1.2546-.9134s-.6602-.7977-.9134-1.2546c-.4417-.7973-.7152-1.7008-.7152-2.6769,0-.3838.0389-.7586.113-1.1205.1143-.5583.3342-1.0726.6022-1.5563.948-1.7109,2.7501-2.883,4.8449-2.883.2801,0,.5486.0424.8177.0824h-.0001c2.6797.3982,4.7424,2.6869,4.7424,5.4774s-2.0627,5.0795-4.7424,5.4777ZM76.9651,456.8845c-.2689.0399-.5374.0824-.8175.0824-.976,0-1.8795-.2735-2.6769-.7152-.4569-.2531-.8881-.5468-1.2546-.9134s-.6602-.7977-.9134-1.2546c-.4417-.7973-.7152-1.7008-.7152-2.6769,0-.3838.0389-.7586.113-1.1205.1143-.5583.3342-1.0726.6022-1.5563.948-1.7109,2.7501-2.883,4.8449-2.883.2801,0,.5486.0424.8175.0824,2.6797.3982,4.7424,2.6867,4.7424,5.4774s-2.0627,5.0795-4.7424,5.4777ZM98.1772,456.8845c-.2689.0399-.5374.0824-.8175.0824-.976,0-1.8795-.2735-2.6769-.7152-.4569-.2531-.8881-.5468-1.2546-.9134s-.6602-.7977-.9134-1.2546c-.4417-.7973-.7152-1.7008-.7152-2.6769,0-.3838.0389-.7586.113-1.1205.1143-.5583.3342-1.0726.6022-1.5563.948-1.7109,2.7501-2.883,4.8449-2.883.2801,0,.5486.0424.8175.0824,2.6797.3982,4.7424,2.6867,4.7424,5.4774s-2.0627,5.0795-4.7424,5.4777ZM119.3893,456.8845c-.2689.0399-.5374.0824-.8175.0824-.3838,0-.7587-.0389-1.1206-.113-.4894-.1001-.9426-.2849-1.3759-.5044-1.8102-.9169-3.0635-2.7746-3.0635-4.9427,0-.3838.0389-.7586.113-1.1205.2222-1.0859.7608-2.0563,1.5155-2.8109.2515-.2516.5272-.4792.8229-.6789.5915-.3996,1.2641-.6884,1.9881-.8366.3619-.0741.7368-.113,1.1206-.113.2801,0,.5486.0424.8175.0824,2.6797.3982,4.7424,2.6867,4.7424,5.4774s-2.0627,5.0795-4.7424,5.4777ZM140.6012,456.8845h.0001c-.2689.0399-.5375.0824-.8177.0824-.7676,0-1.4991-.1556-2.1642-.437-1.9956-.8441-3.3957-2.8199-3.3957-5.1231,0-.3838.0389-.7586.113-1.1205.2222-1.0859.7608-2.0563,1.5155-2.8109.5031-.5031,1.1021-.91,1.7673-1.1915.6651-.2813,1.3966-.437,2.1642-.437.2801,0,.5487.0424.8177.0824h-.0001c2.6797.3982,4.7425,2.6869,4.7425,5.4774s-2.0628,5.0795-4.7425,5.4777ZM161.8133,456.8845h.0001c-.2689.0399-.5375.0824-.8177.0824-.7676,0-1.4991-.1556-2.1642-.437-1.9956-.8441-3.3957-2.8199-3.3957-5.1231,0-.3838.0389-.7586.113-1.1205.2222-1.0859.7608-2.0563,1.5155-2.8109.5031-.5031,1.1021-.91,1.7673-1.1915.6651-.2813,1.3966-.437,2.1642-.437.2801,0,.5487.0424.8177.0824h-.0001c2.6797.3982,4.7425,2.6869,4.7425,5.4774s-2.0628,5.0795-4.7425,5.4777ZM183.0254,456.8845h.0001c-.2689.0399-.5375.0824-.8177.0824-.7676,0-1.4991-.1556-2.1642-.437-1.9956-.8441-3.3957-2.8199-3.3957-5.1231,0-.3838.0389-.7586.113-1.1205.2222-1.0859.7608-2.0563,1.5155-2.8109.5031-.5031,1.1021-.91,1.7673-1.1915.6651-.2813,1.3966-.437,2.1642-.437.2801,0,.5487.0424.8177.0824h-.0001c2.6797.3982,4.7425,2.6869,4.7425,5.4774s-2.0628,5.0795-4.7425,5.4777ZM204.2374,456.8845h.0001c-.2689.0399-.5375.0824-.8177.0824-.7676,0-1.4991-.1556-2.1642-.437-1.9956-.8441-3.3957-2.8199-3.3957-5.1231,0-.3838.0389-.7586.113-1.1205.2222-1.0859.7608-2.0563,1.5155-2.8109.5031-.5031,1.1021-.91,1.7673-1.1915.6651-.2813,1.3966-.437,2.1642-.437.2801,0,.5487.0424.8177.0824h-.0001c2.6797.3982,4.7424,2.6869,4.7424,5.4774s-2.0627,5.0795-4.7424,5.4777ZM225.4495,456.8845h.0001c-.2689.0399-.5375.0824-.8177.0824-.7676,0-1.4991-.1556-2.1642-.437-1.9956-.8441-3.3957-2.8199-3.3957-5.1231,0-.3838.0389-.7586.113-1.1205.2222-1.0859.7608-2.0563,1.5155-2.8109.5031-.5031,1.1021-.91,1.7673-1.1915.6651-.2813,1.3966-.437,2.1642-.437.2801,0,.5487.0424.8177.0824h-.0001c2.6797.3982,4.7424,2.6869,4.7424,5.4774s-2.0627,5.0795-4.7424,5.4777ZM246.6616,456.8845h.0001c-.2689.0399-.5375.0824-.8178.0824-.7676,0-1.4991-.1556-2.1642-.437-1.9956-.8441-3.3956-2.8199-3.3956-5.1231,0-.3838.0389-.7586.113-1.1205.2222-1.0859.761-2.0563,1.5155-2.8109,1.0061-1.0061,2.396-1.6284,3.9314-1.6284.2802,0,.5488.0424.8178.0824h-.0001c2.6799.3982,4.7424,2.6869,4.7424,5.4774s-2.0625,5.0795-4.7424,5.4777ZM267.8737,456.8845h.0001c-.2689.0399-.5377.0824-.8178.0824-.7676,0-1.4991-.1556-2.1642-.437-1.9956-.8441-3.3956-2.8199-3.3956-5.1231,0-.3838.0389-.7586.113-1.1205.2222-1.0859.761-2.0563,1.5155-2.8109,1.0061-1.0061,2.396-1.6284,3.9314-1.6284.2801,0,.5488.0424.8178.0824h-.0001c2.6799.3983,4.7424,2.6869,4.7424,5.4774s-2.0625,5.0793-4.7424,5.4777ZM289.0858,456.8845h.0001c-.2689.0399-.5377.0824-.8178.0824-.7676,0-1.4991-.1556-2.1642-.437-1.9956-.8441-3.3956-2.8199-3.3956-5.1231,0-.3838.0389-.7586.113-1.1205.2222-1.0859.761-2.0563,1.5155-2.8109,1.0061-1.0061,2.396-1.6284,3.9314-1.6284.2801,0,.5488.0424.8178.0824h-.0001c2.6799.3983,4.7424,2.6869,4.7424,5.4774s-2.0625,5.0793-4.7424,5.4777Z"/>
</svg>