<?xml version="1.0" encoding="UTF-8"?>
<svg id="Layer_1" data-name="Layer 1" xmlns="http://www.w3.org/2000/svg" width="642.0552" height="642.0468" viewBox="0 0 642.0552 642.0468">
  <path fill-rule="evenodd" d="M602.233,0h-137.564c-22.008,0-39.8234,17.8066-39.8234,39.8172,0,59.6092-48.5261,108.0963-108.0963,108.0963s-108.0989-48.4872-108.0989-108.0963c0-22.0105-17.8041-39.8172-39.8146-39.8172H39.8174C17.8154,0,0,17.8066,0,39.8172v562.415c0,22.0077,17.8154,39.8146,39.8174,39.8146h562.4156c22.0105,0,39.8222-17.8069,39.8222-39.8146V39.8172c0-22.0105-17.8117-39.8172-39.8222-39.8172Z M79.6405,562.4176V79.6318h53.6576c18.2749,84.4562,93.6306,147.9107,183.4512,147.9107s165.1828-63.4545,183.4515-147.9107h62.2173v482.7857H79.6405Z"/>
  <path fill-rule="nonzero" transform="matrix(340.909082 0 0 340.909082 228.113636 213.863664)" d="M0.5180000066757202,0.6356666088104248C0.5046666860580444,0.6356666088104248 0.4925000071525574,0.6391665935516357 0.4815000295639038,0.6461666226387024 0.47050002217292786,0.653166651725769 0.4620000123977661,0.6633332967758179 0.45600003004074097,0.6766666173934937 0.45000001788139343,0.6899999380111694 0.44700002670288086,0.7066666483879089 0.44700002670288086,0.7266666293144226 0.44700002670288086,0.746666669845581 0.45000001788139343,0.7634999752044678 0.45600003004074097,0.7771666049957275 0.4620000123977661,0.7908332943916321 0.47050002217292786,0.8011666536331177 0.4815000295639038,0.8081666231155396 0.4925000071525574,0.8151666522026062 0.5046666860580444,0.8186666369438171 0.5180000066757202,0.8186666369438171 0.5320000052452087,0.8186666369438171 0.5443333387374878,0.8151666522026062 0.5550000071525574,0.8081666231155396 0.565666675567627,0.8011666536331177 0.5741666555404663,0.7908332943916321 0.5805000066757202,0.7771666049957275 0.5868333578109741,0.7634999752044678 0.5900000333786011,0.746666669845581 0.5900000333786011,0.7266666293144226 0.5900000333786011,0.7066666483879089 0.5868333578109741,0.6899999380111694 0.5805000066757202,0.6766666173934937 0.5741666555404663,0.6633332967758179 0.565666675567627,0.653166651725769 0.5550000071525574,0.6461666226387024 0.5443333387374878,0.6391665935516357 0.5320000052452087,0.6356666088104248 0.5180000066757202,0.6356666088104248z M0.5270000100135803,0.2526665925979614C0.5990000367164612,0.2526665925979614 0.6644999980926514,0.26383328437805176 0.7235000133514404,0.28616660833358765 0.7825000286102295,0.3084999918937683 0.8331666588783264,0.3395000100135803 0.8755000233650208,0.3791666030883789 0.9178333282470703,0.41883331537246704 0.9505000114440918,0.4648333191871643 0.9735000729560852,0.5171666145324707 0.9965000152587891,0.5694999694824219 1.0080000162124634,0.625666618347168 1.0080000162124634,0.6856666207313538 1.0080000162124634,0.7489999532699585 0.9973333477973938,0.8023332953453064 0.9760000705718994,0.8456666469573975 0.9546666741371155,0.8889999389648438 0.9261666536331177,0.9214999675750732 0.8905000686645508,0.9431666135787964 0.8548333644866943,0.9648333191871643 0.815666675567627,0.9756666421890259 0.7730000615119934,0.9756666421890259 0.71833336353302,0.9756666421890259 0.675000011920929,0.9599999785423279 0.6430000066757202,0.9286666512489319L0.6127781867980957,0.8797659873962402 0.5705000162124634,0.9446666240692139C0.5441666841506958,0.9653332829475403 0.5083333253860474,0.9756666421890259 0.46300002932548523,0.9756666421890259 0.4270000159740448,0.9756666421890259 0.3928333520889282,0.965666651725769 0.3605000078678131,0.9456666111946106 0.328166663646698,0.9256666302680969 0.3018333315849304,0.8969999551773071 0.2815000116825104,0.859666645526886 0.26116669178009033,0.8223333358764648 0.2510000169277191,0.777999997138977 0.2510000169277191,0.7266666293144226 0.2510000169277191,0.6753333210945129 0.26100000739097595,0.6311666369438171 0.281000018119812,0.59416663646698 0.3009999990463257,0.5571666359901428 0.32716667652130127,0.528666615486145 0.3595000207424164,0.5086666345596313 0.3918333351612091,0.4886666238307953 0.42633333802223206,0.47866663336753845 0.46300002932548523,0.47866660356521606 0.5056666731834412,0.47866663336753845 0.5403333306312561,0.48899996280670166 0.5670000314712524,0.5096666216850281L0.5860000252723694,0.537522554397583 0.5860000252723694,0.48766660690307617 0.7780000567436218,0.48766660690307617 0.7780000567436218,0.7736666202545166C0.7780000567436218,0.7943333387374878 0.7818334102630615,0.8086666464805603 0.7895000576972961,0.8166666030883789 0.7971667051315308,0.8246666193008423 0.8063333034515381,0.828666627407074 0.8170000314712524,0.828666627407074 0.8263332843780518,0.828666627407074 0.8348333239555359,0.8248332738876343 0.8425000309944153,0.8171666264533997 0.8501666784286499,0.809499979019165 0.8563333749771118,0.7954999804496765 0.8610000610351562,0.7751666307449341 0.8656666278839111,0.7548332810401917 0.8679999709129333,0.7259999513626099 0.8680000305175781,0.688666582107544 0.8679999709129333,0.6433333158493042 0.8600000143051147,0.6018332839012146 0.8440000414848328,0.5641666054725647 0.8280000686645508,0.5264999866485596 0.8050000667572021,0.4938333034515381 0.7750000357627869,0.466166615486145 0.7450000047683716,0.43849998712539673 0.7089999914169312,0.41716665029525757 0.6670000553131104,0.40216660499572754 0.625,0.38716667890548706 0.57833331823349,0.37966662645339966 0.5270000100135803,0.37966662645339966 0.4756666421890259,0.37966662645339966 0.42899999022483826,0.387999951839447 0.38700002431869507,0.40466660261154175 0.3449999988079071,0.42133331298828125 0.3088333308696747,0.44483333826065063 0.2785000205039978,0.4751666188240051 0.24816666543483734,0.5054999589920044 0.22483333945274353,0.5409999489784241 0.20850001275539398,0.5816665887832642 0.19216668605804443,0.622333288192749 0.18400001525878906,0.6663333177566528 0.18400001525878906,0.7136666178703308 0.18400001525878906,0.7623332738876343 0.19200000166893005,0.8071666359901428 0.20800000429153442,0.8481666445732117 0.2240000069141388,0.8891666531562805 0.24700000882148743,0.9248332977294922 0.2770000100135803,0.9551666378974915 0.3070000112056732,0.9854999780654907 0.34283334016799927,1.0088332891464233 0.38450002670288086,1.025166630744934 0.42616668343544006,1.0414999723434448 0.4723333418369293,1.0496666431427002 0.5230000019073486,1.0496666431427002 0.5563333034515381,1.0496666431427002 0.5898333787918091,1.0461666584014893 0.6235000491142273,1.0391666889190674 0.6571666598320007,1.032166600227356 0.6909999847412109,1.0210000276565552 0.7250000238418579,1.0056666135787964L0.7670000195503235,1.128666639328003C0.7369999885559082,1.1433333158493042 0.7000000476837158,1.1549999713897705 0.656000018119812,1.1636666059494019 0.6119999885559082,1.1723333597183228 0.5676666498184204,1.1766666173934937 0.5230000019073486,1.1766666173934937 0.4476666748523712,1.1766666173934937 0.37966668605804443,1.1649999618530273 0.3190000057220459,1.1416666507720947 0.25833332538604736,1.118333339691162 0.20633333921432495,1.0856666564941406 0.16300000250339508,1.0436666011810303 0.11966666579246521,1.0016666650772095 0.08649999648332596,0.9524999856948853 0.06350000202655792,0.8961666226387024 0.04050000011920929,0.8398333191871643 0.028999999165534973,0.778999924659729 0.029000001028180122,0.7136666178703308 0.028999999165534973,0.6489999294281006 0.04050000011920929,0.5888332724571228 0.06350000202655792,0.5331666469573975 0.08649999648332596,0.47749996185302734 0.1198333352804184,0.4286666512489319 0.16350001096725464,0.38666659593582153 0.2071666717529297,0.34466665983200073 0.25966668128967285,0.31183332204818726 0.32100000977516174,0.2881665825843811 0.38233333826065063,0.2644999623298645 0.4509999752044678,0.2526665925979614 0.5270000100135803,0.2526665925979614z"/>
</svg>