<?xml version="1.0" encoding="UTF-8"?>
<svg id="Layer_1" data-name="Layer 1" xmlns="http://www.w3.org/2000/svg" width="443.7863" height="441.8463" viewBox="0 0 443.7863 441.8463" shape-rendering="geometricPrecision">
  <defs>
    <style>
      .brand-red { fill: #b82726; }
    </style>
    <mask id="cursor-cutout" maskUnits="userSpaceOnUse" x="0" y="0" width="443.7863" height="441.8463">
      <rect width="443.7863" height="441.8463" fill="white"/>
      <path d="M266.2741,123.5137l-17.4348-33.216c-5.6999-10.8593-16.323-16.2888-26.9462-16.2888s-21.2463,5.4296-26.9462,16.2888l-17.4347,33.216-44.3808,84.553-44.3809,84.553-1.7778,3.387c-11.3021,21.5323 5.5932,44.7043 26.7755,44.7043 4.3249,0 8.8293-.9662 13.308-3.1096l6.0753-2.9075 75.6245-36.1917c4.1535-1.9878 8.6453-2.9816 13.1371-2.9816s8.9838,.9939 13.1373,2.9816l75.6245,36.1917 6.0751,2.9075c4.4803,2.1441 8.9817,3.1096 13.308,3.1096 21.1801,0 38.0767-23.1736 26.7754-44.7043l-1.7776-3.387-44.3809-84.553-44.3809-84.553Z" fill="none" stroke="black" stroke-width="31" stroke-linecap="round" stroke-linejoin="round"/>
    </mask>
  </defs>
  <g id="ticket" mask="url(#cursor-cutout)">
    <path class="brand-red" d="M6.5537,210.6591C2.9343,210.6591 0,207.7248 0,204.1054V102.4028C0,98.9157 2.7332,96.0752 6.2136,95.8599C8.3738,95.7261 10.5176,95.514 12.6624,95.2068C57.8535,89.2581 92.8525,51.9734 95.7321,10.1221C95.9484,6.6778 98.8121,4 102.2632,4H102.2632C102.2632,1.7909 103.9462,0 106.0222,0C108.0982,0 109.7812,1.7909 109.7812,4C109.7812,10.334 114.8882,15.4688 121.188,15.4688C127.4877,15.4688 132.5947,10.334 132.5947,4C132.5947,1.7909 135.0023,0 137.9721,0C140.942,0 143.3496,1.7909 143.3496,4C143.3496,10.334 148.4566,15.4688 154.7563,15.4688C161.0561,15.4688 166.1631,10.334 166.1631,4C166.1631,1.7909 168.5707,0 171.5405,0C174.5104,0 176.918,1.7909 176.918,4C176.918,10.334 182.025,15.4688 188.3247,15.4688C194.6245,15.4688 199.7315,10.334 199.7315,4C199.7315,1.7909 202.1391,0 205.1089,0C208.0788,0 210.4864,1.7909 210.4864,4C210.4864,10.334 215.5934,15.4688 221.8931,15.4688C228.1929,15.4688 233.2999,10.334 233.2999,4C233.2999,1.7909 235.7075,0 238.6773,0C241.6472,0 244.0548,1.7909 244.0548,4C244.0548,10.334 249.1618,15.4688 255.4615,15.4688C261.7613,15.4688 266.8683,10.334 266.8683,4C266.8683,1.7909 269.2759,0 272.2457,0C275.2156,0 277.6232,1.7909 277.6232,4C277.6232,10.334 282.7302,15.4688 289.0299,15.4688C295.3297,15.4688 300.4367,10.334 300.4367,4C300.4367,1.7909 302.8443,0 305.8141,0C308.784,0 311.1916,1.7909 311.1916,4C311.1916,10.334 316.2986,15.4688 322.5983,15.4688C328.8981,15.4688 334.0051,10.334 334.0051,4C334.0051,1.7909 335.6881,0 337.7641,0C339.8401,0 341.5231,1.7909 341.5231,4H341.5231C344.9743,4 347.838,6.6778 348.0544,10.1221C350.934,51.9734 385.933,89.2581 431.1242,95.2068C433.2687,95.514 435.4125,95.7261 437.5727,95.8599C441.0531,96.0752 443.7863,98.9157 443.7863,102.4028V204.1054C443.7863,207.7248 440.852,210.6591 437.2326,210.6591H6.5537Z"/>
    <path class="brand-red" d="M6.5537,231.1871H437.2326C440.852,231.1871 443.7863,234.1214 443.7863,237.7408V339.4435C443.7863,342.9305 441.0531,345.771 437.5727,345.9864C435.4125,346.1201 433.2687,346.3323 431.1242,346.6395C385.933,352.5882 350.934,389.8729 348.0544,431.7242C347.838,435.1685 344.9743,437.8463 341.5231,437.8463H341.5231C341.5231,440.0554 339.8401,441.8463 337.7641,441.8463C335.6881,441.8463 334.0051,440.0554 334.0051,437.8463C334.0051,431.5123 328.8981,426.3775 322.5983,426.3775C316.2986,426.3775 311.1916,431.5123 311.1916,437.8463C311.1916,440.0554 308.784,441.8463 305.8141,441.8463C302.8443,441.8463 300.4367,440.0554 300.4367,437.8463C300.4367,431.5123 295.3297,426.3775 289.0299,426.3775C282.7302,426.3775 277.6232,431.5123 277.6232,437.8463C277.6232,440.0554 275.2156,441.8463 272.2457,441.8463C269.2759,441.8463 266.8683,440.0554 266.8683,437.8463C266.8683,431.5123 261.7613,426.3775 255.4615,426.3775C249.1618,426.3775 244.0548,431.5123 244.0548,437.8463C244.0548,440.0554 241.6472,441.8463 238.6773,441.8463C235.7075,441.8463 233.2999,440.0554 233.2999,437.8463C233.2999,431.5123 228.1929,426.3775 221.8931,426.3775C215.5934,426.3775 210.4864,431.5123 210.4864,437.8463C210.4864,440.0554 208.0788,441.8463 205.1089,441.8463C202.1391,441.8463 199.7315,440.0554 199.7315,437.8463C199.7315,431.5123 194.6245,426.3775 188.3247,426.3775C182.025,426.3775 176.918,431.5123 176.918,437.8463C176.918,440.0554 174.5104,441.8463 171.5405,441.8463C168.5707,441.8463 166.1631,440.0554 166.1631,437.8463C166.1631,431.5123 161.0561,426.3775 154.7563,426.3775C148.4566,426.3775 143.3496,431.5123 143.3496,437.8463C143.3496,440.0554 140.942,441.8463 137.9721,441.8463C135.0023,441.8463 132.5947,440.0554 132.5947,437.8463C132.5947,431.5123 127.4877,426.3775 121.1879,426.3775C114.8882,426.3775 109.7812,431.5123 109.7812,437.8463C109.7812,440.0554 108.0982,441.8463 106.0222,441.8463C103.9462,441.8463 102.2632,440.0554 102.2632,437.8463H102.2632C98.8121,437.8463 95.9484,435.1685 95.7321,431.7242C92.8525,389.8729 57.8535,352.5882 12.6624,346.6395C10.5176,346.3323 8.3738,346.1201 6.2136,345.9864C2.7332,345.771 0,342.9305 0,339.4435V237.7408C0,234.1214 2.9343,231.1871 6.5537,231.1871Z"/>
  </g>
  <path id="cursor" class="brand-red" d="M266.2741,123.5137l-17.4348-33.216c-5.6999-10.8593-16.323-16.2888-26.9462-16.2888s-21.2463,5.4296-26.9462,16.2888l-17.4347,33.216-44.3808,84.553-44.3809,84.553-1.7778,3.387c-11.3021,21.5323 5.5932,44.7043 26.7755,44.7043 4.3249,0 8.8293-.9662 13.308-3.1096l6.0753-2.9075 75.6245-36.1917c4.1535-1.9878 8.6453-2.9816 13.1371-2.9816s8.9838,.9939 13.1373,2.9816l75.6245,36.1917 6.0751,2.9075c4.4803,2.1441 8.9817,3.1096 13.308,3.1096 21.1801,0 38.0767-23.1736 26.7754-44.7043l-1.7776-3.387-44.3809-84.553-44.3809-84.553Z"/>
</svg>
