<?xml version="1.0" encoding="UTF-8"?>
<svg id="Layer_1" data-name="Layer 1" xmlns="http://www.w3.org/2000/svg" width="720.79" height="513.4819" viewBox="0 0 720.79 513.4819">
  <defs>
    <style>
      .cls-1 {
        fill: #231f20;
      }
    </style>
  </defs>
  <g>
    <path class="cls-1" d="M116.5234,237.1724c0,2.2939-1.1494,3.4375-3.437,3.4375h-28.5298c-2.293,0-3.437-1.1436-3.437-3.4375v-100.0244h-45.7158v100.0244c0,2.2939-1.2622,3.4375-3.7812,3.4375H3.437c-2.2935,0-3.437-1.1436-3.437-3.4375V37.8101c0-5.2686.9717-10.1934,2.9214-14.7803,1.9443-4.5811,4.6406-8.5928,8.0776-12.0303,3.4375-3.4375,7.4438-6.1279,12.0308-8.0776,4.5811-1.9443,9.5059-2.9219,14.7803-2.9219h40.9033c5.269,0,10.1938.9775,14.7803,2.9219,4.5815,1.9497,8.5933,4.6401,12.0308,8.0776,3.437,3.4375,6.1279,7.4492,8.0776,12.0303,1.9438,4.5869,2.9214,9.5117,2.9214,14.7803v199.3623ZM81.1196,34.373h-45.7158v68.7456h45.7158V34.373Z"/>
    <path class="cls-1" d="M270.854,202.7993c0,5.2744-.9775,10.1992-2.9214,14.7812-1.9497,4.5859-4.6406,8.5928-8.0776,12.0303-3.4375,3.4365-7.4492,6.1328-12.0308,8.0771-4.5864,1.9502-9.5112,2.9219-14.7803,2.9219h-75.2764c-2.2935,0-3.437-1.1436-3.437-3.4375V3.4375c0-2.2881,1.1436-3.4375,3.437-3.4375h75.2764c5.269,0,10.1938.9775,14.7803,2.9219,4.5815,1.9497,8.5933,4.6401,12.0308,8.0776,3.437,3.4375,6.1279,7.4492,8.0776,12.0303,1.9438,4.5869,2.9214,9.5117,2.9214,14.7803v164.9893ZM235.7939,34.373h-46.0596v172.2075h46.0596V34.373Z"/>
    <path class="cls-1" d="M512.4932,237.1724c0,2.2939-1.1494,3.4375-3.4375,3.4375h-28.5293c-2.293,0-3.4365-1.1436-3.4365-3.4375V34.373h-50.5283v202.7993c0,2.2939-1.1494,3.4375-3.4375,3.4375h-28.5293c-2.2939,0-3.4375-1.1436-3.4375-3.4375V34.373h-50.5278v202.7993c0,2.2939-1.1494,3.4375-3.4375,3.4375h-28.5293c-2.2935,0-3.437-1.1436-3.437-3.4375V3.4375c0-2.2881,1.1436-3.4375,3.437-3.4375h28.5293c2.2881,0,3.4375,1.1494,3.4375,3.4375v8.2495c3.437-3.6631,7.5029-6.5308,12.2021-8.5933,4.6943-2.0625,9.7964-3.0938,15.2954-3.0938h20.624c6.875,0,13.1748,1.665,18.9053,4.9844,5.7246,3.3242,10.1934,7.8521,13.4053,13.5771,3.4375-5.7251,7.959-10.2529,13.5771-13.5771,5.6123-3.3193,11.9717-4.9844,19.0771-4.9844h20.9678c5.2686,0,10.1934.9775,14.7803,2.9219,4.5811,1.9497,8.5928,4.6401,12.0303,8.0776s6.1279,7.4492,8.0771,12.0303c1.9443,4.5869,2.9219,9.5117,2.9219,14.7803v199.3623Z"/>
    <path class="cls-1" d="M585.7061,237.1724c0,2.2939-1.1484,3.4375-3.4365,3.4375h-28.5293c-2.2939,0-3.4375-1.1436-3.4375-3.4375V3.4375c0-2.2881,1.1436-3.4375,3.4375-3.4375h28.5293c2.2881,0,3.4365,1.1494,3.4365,3.4375v233.7349Z"/>
    <path class="cls-1" d="M720.79,30.5918c0,2.5244-1.1494,3.7812-3.4365,3.7812h-35.4043v202.7993c0,2.2939-1.1494,3.4375-3.4375,3.4375h-28.1855c-2.293,0-3.4375-1.1436-3.4375-3.4375V34.373h-35.4033c-2.2939,0-3.4375-1.2568-3.4375-3.7812V3.4375c0-2.2881,1.1436-3.4375,3.4375-3.4375h105.8682c2.2871,0,3.4365,1.1494,3.4365,3.4375v27.1543Z"/>
  </g>
  <g>
    <path class="cls-1" d="M131.645,475.6714c0,5.2754-.9775,10.1992-2.9219,14.7812-1.9497,4.5859-4.5864,8.5938-7.9058,12.0312-3.3242,3.4355-7.2773,6.1328-11.8584,8.0762-4.5869,1.9512-9.5117,2.9219-14.7803,2.9219h-41.2476c-5.2739,0-10.1992-.9707-14.7803-2.9219-4.5864-1.9434-8.5396-4.6406-11.8584-8.0762-3.3247-3.4375-5.9619-7.4453-7.9058-12.0312-1.9497-4.582-2.9219-9.5059-2.9219-14.7812v-164.9883c0-5.2695.9722-10.1934,2.9219-14.7812,1.9438-4.5801,4.5811-8.5918,7.9058-12.0293,3.3188-3.4375,7.272-6.1289,11.8584-8.0781,4.5811-1.9443,9.5063-2.9219,14.7803-2.9219h41.2476c5.2686,0,10.1934.9775,14.7803,2.9219,4.5811,1.9492,8.5342,4.6406,11.8584,8.0781,3.3193,3.4375,5.9561,7.4492,7.9058,12.0293,1.9443,4.5879,2.9219,9.5117,2.9219,14.7812v164.9883ZM96.5845,307.2456h-45.7158v172.207h45.7158v-172.207Z"/>
    <path class="cls-1" d="M287.0078,510.0444c0,2.2949-1.1494,3.4375-3.4375,3.4375h-28.1855c-2.2935,0-3.4375-1.1426-3.4375-3.4375v-202.7988h-50.5278v202.7988c0,2.2949-1.2622,3.4375-3.7812,3.4375h-28.1855c-2.2935,0-3.437-1.1426-3.437-3.4375v-233.7344c0-2.2881,1.1436-3.4375,3.437-3.4375h28.1855c2.519,0,3.7812,1.1494,3.7812,3.4375v8.25c3.2061-3.6641,7.2183-6.5312,12.0303-8.5938,4.8125-2.0625,9.8501-3.0938,15.124-3.0938h20.624c5.2686,0,10.1934.9775,14.7803,2.9219,4.5811,1.9492,8.5933,4.6406,12.0303,8.0781,3.4375,3.4375,6.1279,7.4492,8.0776,12.0293,1.9443,4.5879,2.9219,9.5117,2.9219,14.7812v199.3613Z"/>
    <path class="cls-1" d="M413.1533,510.0444c0,2.2949-1.2627,3.4375-3.7812,3.4375h-50.1846c-5.2739,0-10.1992-.9707-14.7803-2.9219-4.5864-1.9434-8.5933-4.6406-12.0303-8.0762-3.4375-3.4375-6.1338-7.4453-8.0776-12.0312-1.9497-4.582-2.9219-9.5059-2.9219-14.7812v-164.9883c0-5.2695.9722-10.1934,2.9219-14.7812,1.9438-4.5801,4.6401-8.5918,8.0776-12.0293,3.437-3.4375,7.4438-6.1289,12.0303-8.0781,4.5811-1.9443,9.5063-2.9219,14.7803-2.9219h50.1846c2.5186,0,3.7812,1.1494,3.7812,3.4375v27.1543c0,2.5244-1.2627,3.7812-3.7812,3.7812h-52.5908v68.7461h52.5908c2.5186,0,3.7812,1.1484,3.7812,3.4375v27.1543c0,2.293-1.2627,3.4375-3.7812,3.4375h-52.5908v69.4316h52.5908c2.5186,0,3.7812,1.1504,3.7812,3.4375v27.1543Z"/>
  </g>
</svg>