<?xml version="1.0" encoding="UTF-8"?>
<svg id="Layer_1" data-name="Layer 1" xmlns="http://www.w3.org/2000/svg" width="3052.3375" height="500" viewBox="0 0 3052.3375 500">
  <defs>
    <style>
      .cls-1 {
        fill: #1b1811;
      }
    </style>
  </defs>
  <path class="cls-1" d="M351.4656,0h-193.1989c-4.1363,1.5429-7.4395,4.9517-9.0746,9.1271L.4732,486.6329c-2.0657,6.6326,2.8903,13.367,9.8372,13.367h163.6733c5.1261,0,9.4726-3.7684,10.1992-8.8427l38.9865-272.2518c.889-6.2081-3.9278-11.7638-10.1992-11.7638h-5.4292c-5.6903,0-10.3032-4.6129-10.3032-10.3032v-7.499c0-3.2817,1.5634-6.3672,4.2096-8.3081l70.2566-51.5303c1.568-.4016,7.1715-1.0327,7.7007.6744,13.1575,120.6144,29.7258,240.7825,46.2051,360.921.6998,5.1018,5.0587,8.9035,10.2084,8.9035h163.6206c6.9453,0,11.9011-6.7316,9.8383-13.3634L360.9906,9.9059C359.3952,5.3833,355.8918,1.6876,351.4656,0Z"/>
  <g>
    <path class="cls-1" d="M928.8988,83.2159v416.7841h-83.9011v-208.0543h-83.2208v208.0543h-83.2208V83.2159c0-11.3601,2.1536-22.1671,6.4803-32.4014,4.3169-10.2295,10.2343-19.0982,17.7376-26.6015s16.3671-13.406,26.6015-17.7327c10.2295-4.3169,21.0267-6.4803,32.4014-6.4803h83.2208c11.3601,0,22.1671,2.1634,32.4014,6.4803,10.2295,4.3267,19.2059,10.2295,26.9441,17.7327,7.7235,7.5032,13.7486,16.372,18.0753,26.6015,4.3169,10.2343,6.4803,21.0413,6.4803,32.4014ZM844.9977,208.0446v-124.8287h-83.2208v124.8287h83.2208Z"/>
    <path class="cls-1" d="M1219.4838,83.2159v333.5683c0,11.8251-2.1634,22.7397-6.4803,32.7342-4.3267,10.0141-10.3518,18.7654-18.0753,26.2638-7.7382,7.5081-16.7146,13.4207-26.9441,17.7376-10.2343,4.3267-21.0413,6.4803-32.4014,6.4803h-166.4415V0h166.4415c11.3601,0,22.1671,2.1634,32.4014,6.4803,10.2295,4.3267,19.2059,10.2295,26.9441,17.7327,7.7235,7.5032,13.7486,16.372,18.0753,26.6015,4.3169,10.2343,6.4803,21.0413,6.4803,32.4014ZM1135.5827,416.7841V83.2159h-83.2208v333.5683h83.2208Z"/>
    <path class="cls-1" d="M1677.1858,83.2159v416.7841h-83.2208V83.2159h-83.2208v416.7841h-83.9011V83.2159h-83.2208v416.7841h-83.2208V0h83.2208v10.9098c13.1857-7.2683,27.0518-10.9098,41.6079-10.9098h62.757c14.5513,0,28.4173,3.6415,41.6128,10.9098,13.1808-7.2683,27.0469-10.9098,41.6079-10.9098h62.757c11.3601,0,22.1671,2.1634,32.4014,6.4803,10.2295,4.3267,19.0982,10.2295,26.6015,17.7327s13.4109,16.372,17.7376,26.6015c4.3169,10.2343,6.4803,21.0413,6.4803,32.4014Z"/>
    <path class="cls-1" d="M1801.3243,0v500h-83.2208V0h83.2208Z"/>
    <path class="cls-1" d="M2093.2749,0v83.2159h-83.9011v416.7841h-83.2208V83.2159h-83.2208V0h250.3426Z"/>
    <path class="cls-1" d="M2523.0098,83.2159v333.5683c0,11.365-2.1634,22.1622-6.4803,32.4014-4.3316,10.2295-10.2343,19.0982-17.7376,26.5966-7.5032,7.5081-16.372,13.4207-26.6015,17.7376-10.2343,4.3267-21.0413,6.4803-32.4014,6.4803h-83.2208c-11.8299,0-22.7446-2.1536-32.744-6.4803-10.0092-4.3169-18.7556-10.2295-26.2589-17.7376-7.5032-7.4983-13.4207-16.3671-17.7376-26.5966-4.3267-10.2392-6.4803-21.0365-6.4803-32.4014V83.2159c0-11.3601,2.1536-22.1671,6.4803-32.4014,4.3169-10.2295,10.2343-19.0982,17.7376-26.6015s16.2497-13.406,26.2589-17.7327c9.9994-4.3169,20.9141-6.4803,32.744-6.4803h83.2208c11.3601,0,22.1671,2.1634,32.4014,6.4803,10.2295,4.3267,19.0982,10.2295,26.6015,17.7327s13.406,16.372,17.7376,26.6015c4.3169,10.2343,6.4803,21.0413,6.4803,32.4014ZM2439.789,416.7841V83.2159h-83.2208v333.5683h83.2208Z"/>
    <path class="cls-1" d="M2813.5948,83.2159v416.7841h-83.2208V83.2159h-83.2208v416.7841h-83.2208V0h83.2208v10.9098c13.1857-7.2683,27.0518-10.9098,41.6079-10.9098h41.6128c11.3601,0,22.1671,2.1634,32.4014,6.4803,10.2295,4.3267,19.0982,10.2295,26.6015,17.7327s13.406,16.372,17.7376,26.6015c4.3169,10.2343,6.4803,21.0413,6.4803,32.4014Z"/>
    <path class="cls-1" d="M3052.3375,416.7841v83.2159h-114.5992c-11.3748,0-22.172-2.1536-32.4014-6.4803-10.2343-4.3169-19.0982-10.2295-26.6015-17.7376-7.5032-7.4983-13.4207-16.3671-17.7376-26.5966-4.3267-10.2392-6.4803-21.0365-6.4803-32.4014V83.2159c0-11.3601,2.1536-22.1671,6.4803-32.4014,4.3169-10.2295,10.2343-19.0982,17.7376-26.6015s16.3671-13.406,26.6015-17.7327c10.2295-4.3169,21.0267-6.4803,32.4014-6.4803h114.5992v83.2159h-114.5992v124.8287h114.5992v83.9011h-114.5992v124.8385h114.5992Z"/>
  </g>
</svg>