<?xml version="1.0" encoding="UTF-8"?>
<svg id="Layer_1" data-name="Layer 1" xmlns="http://www.w3.org/2000/svg" width="699.9913" height="500" viewBox="0 0 699.9913 500">
  <defs>
    <style>
      .cls-1 {
        fill: #fcf7ee;
      }

      .cls-2 {
        fill: #b72626;
      }
    </style>
  </defs>
  <path class="cls-2" d="M698.8641,95.4305c-12.1313,0-23.6596-2.3463-34.5656-7.0607-10.926-4.715-20.3773-11.1599-28.3753-19.3469-7.9973-8.1761-14.312-17.8495-18.9233-29.0095-4.5907-11.1599-6.9176-22.9248-6.9176-35.3273V.0062H89.9089v4.6799c0,12.4024-2.3269,24.1673-6.9176,35.3273-4.6113,11.1599-10.926,20.8334-18.9233,29.0095-7.998,8.1869-17.4493,14.6319-28.3753,19.3469-10.906,4.7144-22.4343,7.0607-34.5656,7.0607H0v309.1453h1.1272c12.1313,0,23.6596,2.3463,34.5656,7.0607,10.926,4.715,20.3773,11.1599,28.3753,19.3469,7.9973,8.1761,14.312,17.8495,18.9233,29.0095,4.5907,11.1599,6.9176,22.9248,6.9176,35.3273v4.6799h520.1735v-4.6799c0-12.4024,2.3269-24.1673,6.9176-35.3273,4.6113-11.1599,10.926-20.8334,18.9233-29.0095,7.998-8.1869,17.4493-14.6319,28.3753-19.3469,10.906-4.7144,22.4343-7.0607,34.5656-7.0607h1.1272V95.4305h-1.1272Z"/>
  <path class="cls-1" d="M446.5895,0h-193.1989c-4.1363,1.5429-7.4395,4.9517-9.0746,9.1271L95.5972,486.6329c-2.0657,6.6326,2.8903,13.367,9.8372,13.367h163.6733c5.1261,0,9.4726-3.7684,10.1992-8.8427l38.9865-272.2518c.889-6.2081-3.9278-11.7638-10.1992-11.7638h-5.4292c-5.6903,0-10.3032-4.6129-10.3032-10.3032v-7.499c0-3.2817,1.5634-6.3672,4.2096-8.3081l70.2566-51.5303c1.568-.4016,7.1715-1.0327,7.7007.6744,13.1575,120.6144,29.7258,240.7825,46.2051,360.921.6998,5.1018,5.0587,8.9035,10.2084,8.9035h163.6206c6.9453,0,11.9011-6.7316,9.8383-13.3634L456.1146,9.9059c-1.5954-4.5226-5.0988-8.2183-9.525-9.9059Z"/>
</svg>