<?xml version="1.0" encoding="UTF-8"?>
<svg id="Layer_1" data-name="Layer 1" xmlns="http://www.w3.org/2000/svg" width="699.9914" height="500" viewBox="0 0 699.9914 500">
  <defs>
    <style>
      .cls-1 {
        fill: #b72626;
      }
    </style>
  </defs>
  <path class="cls-1" d="M698.8641,95.4305c-12.1313,0-23.6595-2.3464-34.5656-7.0607-10.926-4.715-20.3773-11.16-28.3752-19.3469-7.9973-8.1761-14.312-17.8495-18.9233-29.0095-4.5907-11.16-6.9176-22.9249-6.9176-35.3273V.0062h-163.4792c4.4196,1.6901,7.9176,5.3819,9.5113,9.8997l148.2865,476.7306c2.0629,6.6318-2.893,13.3634-9.8383,13.3634h-163.6207c-5.1496,0-9.5085-3.8016-10.2084-8.9035-16.4792-120.1385-33.0476-240.3066-46.2051-360.921-.5292-1.7071-6.1328-1.076-7.7007-.6744l-70.2567,51.5303c-2.6462,1.9409-4.2096,5.0264-4.2096,8.3081v7.499c0,5.6904,4.6129,10.3033,10.3032,10.3033h5.4292c6.2714,0,11.0882,5.5557,10.1992,11.7637l-38.9865,272.2518c-.7266,5.0743-5.0731,8.8427-10.1992,8.8427H105.4343c-6.9468,0-11.9029-6.7344-9.8372-13.367L244.316,9.1271c1.6332-4.1705,4.931-7.5753,9.0606-9.1209H89.9089v4.6799c0,12.4024-2.3269,24.1673-6.9176,35.3273-4.6113,11.1599-10.926,20.8334-18.9233,29.0095-7.9979,8.187-17.4493,14.6319-28.3752,19.3469-10.9059,4.7144-22.4343,7.0607-34.5656,7.0607H0v309.1453h1.1272c12.1313,0,23.6596,2.3463,34.5656,7.0607,10.926,4.715,20.3773,11.1599,28.3752,19.3469,7.9973,8.1761,14.312,17.8495,18.9233,29.0095,4.5907,11.16,6.9176,22.9249,6.9176,35.3273v4.6799h520.1735v-4.6799c0-12.4024,2.3269-24.1673,6.9176-35.3273,4.6113-11.1599,10.926-20.8334,18.9233-29.0095,7.998-8.187,17.4493-14.6318,28.3752-19.3469,10.906-4.7144,22.4343-7.0607,34.5656-7.0607h1.1273V95.4305h-1.1273Z"/>
</svg>