<?xml version="1.0" encoding="UTF-8"?>
<svg id="Layer_1" data-name="Layer 1" xmlns="http://www.w3.org/2000/svg" width="2373.7813" height="500" viewBox="0 0 2373.7813 500">
  <defs>
    <style>
      .cls-1 {
        fill: #1b1811;
      }
    </style>
  </defs>
  <path class="cls-1" d="M250.3426,83.2159v416.7841h-83.9011v-208.0543h-83.2208v208.0543H0V83.2159c0-11.3601,2.1536-22.1671,6.4803-32.4014,4.3169-10.2295,10.2343-19.0982,17.7376-26.6015s16.3671-13.406,26.6015-17.7327C61.0488,2.1634,71.846,0,83.2208,0h83.2208c11.3601,0,22.1671,2.1634,32.4014,6.4803,10.2295,4.3267,19.2059,10.2295,26.9441,17.7327,7.7235,7.5032,13.7486,16.372,18.0753,26.6015,4.3169,10.2343,6.4803,21.0413,6.4803,32.4014ZM166.4415,208.0446v-124.8287h-83.2208v124.8287h83.2208Z"/>
  <path class="cls-1" d="M540.9276,83.2159v333.5683c0,11.8251-2.1634,22.7397-6.4803,32.7342-4.3267,10.0141-10.3518,18.7654-18.0753,26.2638-7.7382,7.5081-16.7146,13.4207-26.9441,17.7376-10.2343,4.3267-21.0413,6.4803-32.4014,6.4803h-166.4415V0h166.4415c11.3601,0,22.1671,2.1634,32.4014,6.4803,10.2295,4.3267,19.2059,10.2295,26.9441,17.7327,7.7235,7.5032,13.7486,16.372,18.0753,26.6015,4.3169,10.2343,6.4803,21.0413,6.4803,32.4014ZM457.0265,416.7841V83.2159h-83.2208v333.5683h83.2208Z"/>
  <path class="cls-1" d="M998.6295,83.2159v416.7841h-83.2208V83.2159h-83.2208v416.7841h-83.9011V83.2159h-83.2208v416.7841h-83.2208V0h83.2208v10.9098c13.1857-7.2683,27.0518-10.9098,41.6079-10.9098h62.757c14.5513,0,28.4173,3.6415,41.6128,10.9098,13.1808-7.2683,27.0469-10.9098,41.6079-10.9098h62.757c11.3601,0,22.1671,2.1634,32.4014,6.4803,10.2295,4.3267,19.0982,10.2295,26.6015,17.7327s13.4109,16.372,17.7376,26.6015c4.3169,10.2343,6.4803,21.0413,6.4803,32.4014Z"/>
  <path class="cls-1" d="M1122.7681,0v500h-83.2208V0h83.2208Z"/>
  <path class="cls-1" d="M1414.7187,0v83.2159h-83.9011v416.7841h-83.2208V83.2159h-83.2208V0h250.3426Z"/>
  <path class="cls-1" d="M1844.4536,83.2159v333.5683c0,11.365-2.1634,22.1622-6.4803,32.4014-4.3316,10.2295-10.2343,19.0982-17.7376,26.5966-7.5032,7.5081-16.372,13.4207-26.6015,17.7376-10.2343,4.3267-21.0413,6.4803-32.4014,6.4803h-83.2208c-11.8299,0-22.7446-2.1536-32.744-6.4803-10.0092-4.3169-18.7556-10.2295-26.2589-17.7376-7.5032-7.4983-13.4207-16.3671-17.7376-26.5966-4.3267-10.2392-6.4803-21.0365-6.4803-32.4014V83.2159c0-11.3601,2.1536-22.1671,6.4803-32.4014,4.3169-10.2295,10.2343-19.0982,17.7376-26.6015s16.2497-13.406,26.2589-17.7327c9.9994-4.3169,20.9141-6.4803,32.744-6.4803h83.2208c11.3601,0,22.1671,2.1634,32.4014,6.4803,10.2295,4.3267,19.0982,10.2295,26.6015,17.7327s13.406,16.372,17.7376,26.6015c4.3169,10.2343,6.4803,21.0413,6.4803,32.4014ZM1761.2328,416.7841V83.2159h-83.2208v333.5683h83.2208Z"/>
  <path class="cls-1" d="M2135.0386,83.2159v416.7841h-83.2208V83.2159h-83.2208v416.7841h-83.2208V0h83.2208v10.9098c13.1857-7.2683,27.0518-10.9098,41.6079-10.9098h41.6128c11.3601,0,22.1671,2.1634,32.4014,6.4803,10.2295,4.3267,19.0982,10.2295,26.6015,17.7327s13.406,16.372,17.7376,26.6015c4.3169,10.2343,6.4803,21.0413,6.4803,32.4014Z"/>
  <path class="cls-1" d="M2373.7813,416.7841v83.2159h-114.5992c-11.3748,0-22.172-2.1536-32.4014-6.4803-10.2343-4.3169-19.0982-10.2295-26.6015-17.7376-7.5032-7.4983-13.4207-16.3671-17.7376-26.5966-4.3267-10.2392-6.4803-21.0365-6.4803-32.4014V83.2159c0-11.3601,2.1536-22.1671,6.4803-32.4014,4.3169-10.2295,10.2343-19.0982,17.7376-26.6015s16.3671-13.406,26.6015-17.7327c10.2295-4.3169,21.0267-6.4803,32.4014-6.4803h114.5992v83.2159h-114.5992v124.8287h114.5992v83.9011h-114.5992v124.8385h114.5992Z"/>
</svg>