<?xml version="1.0" encoding="UTF-8"?>
<svg id="Layer_1" data-name="Layer 1" xmlns="http://www.w3.org/2000/svg" width="517.6493" height="500" viewBox="0 0 517.6493 500">
  <path d="M351.4656,0h-193.1989c-4.1363,1.5429-7.4395,4.9517-9.0746,9.1271L.4732,486.633c-2.0657,6.6326,2.8903,13.367,9.8372,13.367h163.6733c5.1261,0,9.4726-3.7684,10.1992-8.8427l38.9865-272.2519c.889-6.2081-3.9278-11.7638-10.1992-11.7638h-5.4292c-5.6903,0-10.3033-4.6129-10.3033-10.3033v-7.499c0-3.2817,1.5634-6.3672,4.2096-8.3081l70.2566-51.5303c1.568-.4016,7.1715-1.0327,7.7007.6744,13.1575,120.6145,29.7258,240.7825,46.2051,360.9211.6998,5.1018,5.0587,8.9035,10.2084,8.9035h163.6207c6.9453,0,11.9011-6.7316,9.8383-13.3634L360.9907,9.9059c-1.5954-4.5226-5.0988-8.2183-9.525-9.9059Z"/>
</svg>